<?xml version="1.0" encoding="utf-8"?>
<!-- Generator: Adobe Illustrator 15.1.0, SVG Export Plug-In  -->
<!DOCTYPE svg PUBLIC "-//W3C//DTD SVG 1.1//EN" "http://www.w3.org/Graphics/SVG/1.1/DTD/svg11.dtd" [
	<!ENTITY ns_flows "http://ns.adobe.com/Flows/1.0/">
]>
<svg version="1.1"
	 xmlns="http://www.w3.org/2000/svg" xmlns:xlink="http://www.w3.org/1999/xlink" xmlns:a="http://ns.adobe.com/AdobeSVGViewerExtensions/3.0/"
	 x="0px" y="0px" width="1000px" height="400px" viewBox="-0.124 0 1000 400" enable-background="new -0.124 0 1000 400"
	 xml:space="preserve">
<defs>
</defs>
<path fill="#FFFFFF" d="M96.059,314.859v6.025c-19.167-2.643-34.747-10.416-46.738-23.326
	c-11.995-12.912-17.989-27.232-17.989-42.951c0-8.264,1.318-17.873,3.959-28.836c2.638-10.957,3.959-19.479,3.959-25.563
	c0-8.263-3.473-15.978-10.415-23.153c-6.944-7.17-16.556-11.56-28.834-13.169v-7.058c12.278-1.605,21.89-5.966,28.834-13.083
	c6.942-7.114,10.415-14.86,10.415-23.24c0-6.082-1.321-14.574-3.959-25.478c-2.641-10.901-3.959-20.542-3.959-28.921
	c0-15.607,5.995-29.895,17.989-42.865C61.312,10.273,76.891,2.526,96.059,0v6.025C82.631,9.24,72.789,14.49,66.535,21.776
	c-6.256,7.289-9.382,15.294-9.382,24.015c0,6.772,1.291,15.695,3.873,26.769c2.583,11.076,3.874,20.516,3.874,28.318
	c0,11.593-4.248,22.84-12.739,33.741c-8.494,10.904-21.174,19.339-38.044,25.306c16.526,6.085,29.12,14.693,37.786,25.822
	c8.664,11.135,12.998,22.496,12.998,34.084c0,7.809-1.291,17.248-3.874,28.318c-2.582,11.072-3.873,19.996-3.873,26.77
	c0,8.721,3.125,16.725,9.382,24.016C72.789,306.221,82.631,311.527,96.059,314.859z"/>
<path fill="#FFFFFF" d="M165.435,135.624l-17.646,61.199c-0.977,3.5-1.463,5.798-1.463,6.886c0,0.633,0.258,1.219,0.774,1.764
	s1.062,0.818,1.635,0.818c0.976,0,1.95-0.432,2.927-1.291c2.582-2.121,5.681-5.968,9.296-11.534l2.927,1.722
	c-8.665,15.094-17.875,22.637-27.63,22.637c-3.731,0-6.701-1.047-8.909-3.141c-2.209-2.096-3.314-4.746-3.314-7.963
	c0-2.119,0.486-4.82,1.463-8.09l11.964-41.144c1.147-3.959,1.721-6.942,1.721-8.952c0-1.261-0.546-2.38-1.635-3.357
	c-1.09-0.976-2.582-1.463-4.476-1.463c-0.861,0-1.894,0.03-3.099,0.086l1.119-3.443l29.179-4.734H165.435z M160.098,96.03
	c3.558,0,6.555,1.235,8.995,3.701c2.438,2.468,3.658,5.453,3.658,8.952c0,3.5-1.235,6.485-3.701,8.952
	c-2.468,2.467-5.453,3.701-8.952,3.701c-3.443,0-6.399-1.234-8.865-3.701c-2.468-2.466-3.701-5.452-3.701-8.952
	c0-3.499,1.218-6.484,3.658-8.952C153.628,97.265,156.598,96.03,160.098,96.03z"/>
<path fill="#FFFFFF" d="M175.184,176.452l34.625-2.169c0.749,5.624,2.275,9.907,4.579,12.854c3.749,4.766,9.104,7.149,16.067,7.149
	c5.194,0,9.198-1.219,12.01-3.655c2.812-2.436,4.217-5.262,4.217-8.475c0-3.053-1.34-5.784-4.017-8.194
	c-2.678-2.41-8.892-4.685-18.638-6.829c-15.961-3.588-27.341-8.355-34.143-14.3c-6.856-5.945-10.283-13.522-10.283-22.735
	c0-6.051,1.753-11.769,5.262-17.152c3.507-5.382,8.782-9.613,15.826-12.693c7.042-3.079,16.696-4.62,28.961-4.62
	c15.049,0,26.524,2.799,34.424,8.396c7.898,5.598,12.598,14.5,14.099,26.711l-34.303,2.008c-0.911-5.302-2.826-9.158-5.744-11.568
	c-2.919-2.41-6.949-3.615-12.09-3.615c-4.232,0-7.418,0.898-9.56,2.691c-2.144,1.795-3.213,3.977-3.213,6.547
	c0,1.875,0.884,3.562,2.651,5.062c1.713,1.553,5.784,3,12.211,4.338c15.907,3.429,27.3,6.896,34.183,10.403
	c6.882,3.509,11.89,7.86,15.023,13.055c3.133,5.196,4.7,11.006,4.7,17.433c0,7.551-2.089,14.515-6.267,20.888
	c-4.177,6.371-10.016,11.205-17.513,14.5c-7.499,3.293-16.951,4.939-28.358,4.939c-20.031,0-33.902-3.855-41.614-11.568
	C180.566,198.143,176.201,188.342,175.184,176.452z"/>
<path fill="#FFFFFF" d="M292.073,97.643h110.623v29.082H365.58v88.69h-36.392v-88.69h-37.115V97.643z"/>
<path fill="#FFFFFF" d="M495.805,97.643h36.314v70.167c0,6.958-1.086,13.528-3.254,19.708c-2.17,6.18-5.572,11.588-10.203,16.216
	c-4.637,4.631-9.496,7.881-14.582,9.754c-7.07,2.623-15.56,3.934-25.467,3.934c-5.731,0-11.984-0.4-18.759-1.201
	c-6.775-0.807-12.439-2.398-16.991-4.779c-4.553-2.383-8.717-5.768-12.492-10.154c-3.776-4.387-6.361-8.911-7.752-13.568
	c-2.25-7.494-3.375-14.127-3.375-19.909V97.643h36.312v71.837c0,6.424,1.78,11.439,5.342,15.049
	c3.561,3.615,8.501,5.419,14.822,5.419c6.266,0,11.18-1.778,14.742-5.339c3.561-3.558,5.342-8.602,5.342-15.129V97.643z"/>
<path fill="#FFFFFF" d="M556.701,97.643h54.066c10.656,0,19.264,1.446,25.828,4.338c6.559,2.892,11.98,7.044,16.268,12.452
	c4.281,5.41,7.391,11.703,9.318,18.879c1.928,7.177,2.893,14.782,2.893,22.815c0,12.587-1.434,22.348-4.299,29.283
	c-2.869,6.934-6.846,12.748-11.93,17.432c-5.09,4.686-10.553,7.807-16.389,9.359c-7.98,2.143-15.211,3.213-21.689,3.213h-54.066
	V97.643z M593.093,124.314v64.349h8.916c7.604,0,13.016-0.844,16.229-2.531s5.727-4.633,7.551-8.837
	c1.82-4.203,2.732-11.021,2.732-20.445c0-12.478-2.037-21.021-6.105-25.627c-4.074-4.605-10.822-6.909-20.244-6.909H593.093z"/>
<path fill="#FFFFFF" d="M685.64,97.643h36.473v117.771H685.64V97.643z"/>
<path fill="#FFFFFF" d="M743.642,156.609c0-19.226,5.354-34.196,16.068-44.908c10.707-10.71,25.627-16.067,44.746-16.067
	c19.602,0,34.705,5.262,45.309,15.786c10.605,10.524,15.908,25.266,15.908,44.225c0,13.763-2.318,25.05-6.949,33.862
	c-4.637,8.811-11.328,15.665-20.084,20.565c-8.758,4.9-19.672,7.35-32.738,7.35c-13.283,0-24.277-2.113-32.977-6.346
	c-8.705-4.232-15.764-10.925-21.17-20.083C746.345,181.834,743.642,170.372,743.642,156.609z M780.035,156.77
	c0,11.89,2.209,20.431,6.627,25.627c4.42,5.196,10.428,7.792,18.035,7.792c7.816,0,13.871-2.545,18.156-7.632
	c4.281-5.087,6.428-14.22,6.428-27.395c0-11.086-2.238-19.186-6.709-24.302c-4.475-5.114-10.541-7.672-18.195-7.672
	c-7.34,0-13.232,2.598-17.674,7.792C782.255,136.178,780.035,144.774,780.035,156.77z"/>
<path fill="#FFFFFF" d="M903.695,6.025V0c19.162,2.526,34.742,10.243,46.738,23.154c11.99,12.911,17.988,27.286,17.988,43.123
	c0,8.263-1.322,17.848-3.959,28.749c-2.643,10.904-3.959,19.396-3.959,25.478c0,8.263,3.469,15.982,10.414,23.154
	c6.941,7.174,16.553,11.564,28.836,13.169v7.058c-12.283,1.609-21.895,5.999-28.836,13.169
	c-6.945,7.175-10.414,14.891-10.414,23.153c0,6.085,1.316,14.606,3.959,25.563c2.637,10.963,3.959,20.572,3.959,28.836
	c0,15.605-5.998,29.893-17.988,42.865c-11.996,12.965-27.576,20.77-46.738,23.412v-6.025c13.428-3.332,23.266-8.607,29.523-15.838
	c6.252-7.23,9.381-15.268,9.381-24.102c0-6.773-1.322-15.697-3.959-26.77c-2.643-11.07-3.959-20.453-3.959-28.145
	c0-11.707,4.271-23.008,12.824-33.914c8.549-10.9,21.262-19.335,38.131-25.306c-16.525-6.081-29.152-14.688-37.871-25.822
	c-8.727-11.131-13.084-22.493-13.084-34.085c0-7.803,1.316-17.242,3.959-28.318c2.637-11.074,3.959-19.997,3.959-26.769
	c0-8.721-3.129-16.726-9.381-24.015C926.96,14.49,917.123,9.24,903.695,6.025z"/>
<path fill="#FFFFFF" d="M72.03,358.762v21.117c0,1.645,0.119,2.74,0.358,3.285s0.592,0.953,1.062,1.221
	c0.469,0.266,1.324,0.4,2.568,0.4v1.033H63.25v-1.033c1.281,0,2.142-0.123,2.582-0.373s0.789-0.66,1.047-1.232
	c0.258-0.574,0.387-1.674,0.387-3.301v-10.127c0-2.85-0.086-4.697-0.258-5.539c-0.134-0.609-0.345-1.035-0.631-1.275
	c-0.287-0.242-0.679-0.359-1.176-0.359c-0.535,0-1.187,0.145-1.951,0.43l-0.402-1.031l7.919-3.215H72.03z M69.648,345.02
	c0.803,0,1.487,0.283,2.051,0.846c0.563,0.563,0.846,1.248,0.846,2.053c0,0.803-0.283,1.49-0.846,2.064
	c-0.564,0.574-1.248,0.861-2.051,0.861c-0.804,0-1.492-0.287-2.066-0.861s-0.861-1.262-0.861-2.064c0-0.805,0.283-1.49,0.846-2.053
	C68.132,345.303,68.826,345.02,69.648,345.02z"/>
<path fill="#FFFFFF" d="M86.949,364.328c3.08-3.709,6.015-5.566,8.808-5.566c1.435,0,2.668,0.359,3.701,1.076
	c1.033,0.717,1.855,1.9,2.468,3.543c0.42,1.148,0.631,2.908,0.631,5.279v11.219c0,1.664,0.133,2.793,0.402,3.387
	c0.211,0.479,0.549,0.852,1.019,1.119c0.469,0.266,1.334,0.4,2.597,0.4v1.033H93.577v-1.033h0.545c1.224,0,2.08-0.186,2.568-0.559
	s0.828-0.924,1.019-1.65c0.076-0.287,0.115-1.186,0.115-2.697v-10.76c0-2.389-0.312-4.127-0.933-5.207
	c-0.621-1.078-1.668-1.621-3.142-1.621c-2.277,0-4.543,1.242-6.8,3.73v13.857c0,1.779,0.104,2.879,0.315,3.301
	c0.269,0.553,0.636,0.961,1.104,1.219c0.469,0.258,1.42,0.387,2.855,0.387v1.033H78.227v-1.033h0.574
	c1.338,0,2.242-0.342,2.711-1.018c0.469-0.678,0.703-1.975,0.703-3.889v-9.754c0-3.156-0.071-5.08-0.215-5.768
	c-0.144-0.689-0.363-1.156-0.66-1.406s-0.693-0.373-1.19-0.373c-0.535,0-1.176,0.145-1.922,0.43l-0.431-1.031l7.919-3.215h1.234
	V364.328z"/>
<path fill="#FFFFFF" d="M116.329,364.328c3.08-3.709,6.015-5.566,8.808-5.566c1.435,0,2.668,0.359,3.701,1.076
	c1.033,0.717,1.855,1.9,2.468,3.543c0.42,1.148,0.631,2.908,0.631,5.279v11.219c0,1.664,0.134,2.793,0.402,3.387
	c0.211,0.479,0.549,0.852,1.019,1.119c0.469,0.266,1.334,0.4,2.597,0.4v1.033h-12.997v-1.033h0.545c1.224,0,2.08-0.186,2.568-0.559
	s0.828-0.924,1.019-1.65c0.076-0.287,0.115-1.186,0.115-2.697v-10.76c0-2.389-0.311-4.127-0.933-5.207
	c-0.621-1.078-1.668-1.621-3.142-1.621c-2.276,0-4.543,1.242-6.8,3.73v13.857c0,1.779,0.105,2.879,0.315,3.301
	c0.269,0.553,0.636,0.961,1.105,1.219c0.469,0.258,1.42,0.387,2.854,0.387v1.033h-12.997v-1.033h0.574
	c1.338,0,2.242-0.342,2.711-1.018c0.469-0.678,0.703-1.975,0.703-3.889v-9.754c0-3.156-0.072-5.08-0.215-5.768
	c-0.144-0.689-0.363-1.156-0.66-1.406c-0.297-0.25-0.693-0.373-1.19-0.373c-0.535,0-1.176,0.145-1.922,0.43l-0.43-1.031l7.918-3.215
	h1.234V364.328z"/>
<path fill="#FFFFFF" d="M150.902,358.762c3.978,0,7.173,1.514,9.583,4.533c2.047,2.582,3.07,5.547,3.07,8.895
	c0,2.354-0.564,4.734-1.693,7.145s-2.683,4.227-4.662,5.451c-1.98,1.225-4.185,1.836-6.614,1.836c-3.959,0-7.105-1.578-9.439-4.734
	c-1.969-2.658-2.955-5.643-2.955-8.951c0-2.41,0.598-4.805,1.793-7.188c1.195-2.381,2.769-4.143,4.72-5.279
	C146.656,359.334,148.722,358.762,150.902,358.762z M150.013,360.627c-1.014,0-2.033,0.301-3.056,0.904
	c-1.022,0.602-1.851,1.658-2.481,3.17c-0.631,1.512-0.947,3.451-0.947,5.824c0,3.824,0.76,7.125,2.281,9.898
	c1.521,2.775,3.525,4.16,6.011,4.16c1.855,0,3.386-0.766,4.591-2.295s1.808-4.16,1.808-7.891c0-4.668-1.004-8.34-3.013-11.018
	C153.848,361.545,152.117,360.627,150.013,360.627z"/>
<path fill="#FFFFFF" d="M166.08,359.537h12.366v1.063h-0.803c-0.746,0-1.315,0.18-1.707,0.545c-0.392,0.363-0.588,0.852-0.588,1.463
	c0,0.668,0.201,1.463,0.603,2.381l6.111,14.518l6.14-15.063c0.44-1.07,0.66-1.885,0.66-2.439c0-0.266-0.076-0.486-0.229-0.66
	c-0.211-0.285-0.478-0.484-0.803-0.588s-0.985-0.156-1.979-0.156v-1.063h8.579v1.063c-0.994,0.076-1.683,0.277-2.066,0.602
	c-0.67,0.574-1.272,1.529-1.808,2.869l-9.325,22.551h-1.176l-9.382-22.178c-0.42-1.033-0.822-1.775-1.205-2.223
	c-0.383-0.449-0.871-0.828-1.463-1.135c-0.326-0.172-0.965-0.336-1.922-0.486V359.537z"/>
<path fill="#FFFFFF" d="M211.699,382.031c-2.697,2.086-4.39,3.291-5.078,3.615c-1.033,0.479-2.133,0.717-3.3,0.717
	c-1.817,0-3.313-0.623-4.49-1.865c-1.176-1.242-1.764-2.877-1.764-4.906c0-1.281,0.287-2.389,0.86-3.328
	c0.785-1.299,2.148-2.523,4.089-3.672s5.168-2.545,9.683-4.189v-1.033c0-2.619-0.416-4.418-1.248-5.393
	c-0.832-0.977-2.042-1.465-3.629-1.465c-1.205,0-2.162,0.324-2.869,0.977c-0.727,0.65-1.09,1.396-1.09,2.238l0.058,1.664
	c0,0.881-0.226,1.557-0.674,2.037c-0.449,0.479-1.037,0.717-1.765,0.717c-0.707,0-1.287-0.25-1.736-0.746
	c-0.449-0.496-0.674-1.176-0.674-2.037c0-1.645,0.842-3.156,2.525-4.533s4.045-2.066,7.087-2.066c2.334,0,4.246,0.395,5.738,1.178
	c1.129,0.594,1.961,1.52,2.496,2.783c0.344,0.822,0.517,2.504,0.517,5.049v8.924c0,2.504,0.047,4.041,0.143,4.604
	c0.096,0.563,0.254,0.941,0.474,1.135c0.22,0.191,0.474,0.287,0.76,0.287c0.306,0,0.574-0.066,0.803-0.201
	c0.402-0.25,1.177-0.947,2.324-2.096v1.607c-2.142,2.869-4.189,4.303-6.14,4.303c-0.937,0-1.683-0.324-2.238-0.975
	S211.718,383.6,211.699,382.031z M211.699,380.166v-10.014c-2.888,1.148-4.752,1.961-5.595,2.439
	c-1.511,0.84-2.592,1.721-3.242,2.639s-0.976,1.924-0.976,3.014c0,1.377,0.412,2.521,1.234,3.428
	c0.822,0.908,1.769,1.363,2.84,1.363C207.414,383.035,209.328,382.08,211.699,380.166z"/>
<path fill="#FFFFFF" d="M230.521,350.9v8.637h6.14v2.008h-6.14v17.043c0,1.701,0.244,2.85,0.731,3.443s1.115,0.889,1.879,0.889
	c0.631,0,1.244-0.197,1.836-0.588c0.592-0.391,1.051-0.969,1.377-1.736h1.119c-0.67,1.875-1.617,3.285-2.84,4.232
	c-1.224,0.947-2.486,1.42-3.788,1.42c-0.879,0-1.74-0.242-2.582-0.73c-0.842-0.488-1.463-1.188-1.865-2.096
	c-0.401-0.906-0.603-2.309-0.603-4.203v-17.674h-4.16V360.6c1.052-0.422,2.127-1.135,3.228-2.139c1.1-1.004,2.08-2.195,2.941-3.572
	c0.44-0.725,1.051-2.057,1.836-3.988H230.521z"/>
<path fill="#FFFFFF" d="M248.281,358.762v21.117c0,1.645,0.119,2.74,0.359,3.285c0.239,0.545,0.592,0.953,1.062,1.221
	c0.469,0.266,1.324,0.4,2.568,0.4v1.033h-12.768v-1.033c1.281,0,2.142-0.123,2.582-0.373s0.789-0.66,1.047-1.232
	c0.258-0.574,0.387-1.674,0.387-3.301v-10.127c0-2.85-0.086-4.697-0.258-5.539c-0.133-0.609-0.344-1.035-0.631-1.275
	c-0.287-0.242-0.679-0.359-1.177-0.359c-0.535,0-1.186,0.145-1.951,0.43l-0.402-1.031l7.919-3.215H248.281z M245.899,345.02
	c0.803,0,1.488,0.283,2.052,0.846c0.563,0.563,0.846,1.248,0.846,2.053c0,0.803-0.283,1.49-0.846,2.064
	c-0.564,0.574-1.249,0.861-2.052,0.861s-1.492-0.287-2.066-0.861c-0.574-0.574-0.86-1.262-0.86-2.064
	c0-0.805,0.282-1.49,0.846-2.053S245.078,345.02,245.899,345.02z"/>
<path fill="#FFFFFF" d="M268.394,358.762c3.978,0,7.173,1.514,9.583,4.533c2.047,2.582,3.07,5.547,3.07,8.895
	c0,2.354-0.563,4.734-1.693,7.145c-1.129,2.41-2.683,4.227-4.662,5.451c-1.98,1.225-4.185,1.836-6.613,1.836
	c-3.959,0-7.105-1.578-9.439-4.734c-1.97-2.658-2.956-5.643-2.956-8.951c0-2.41,0.599-4.805,1.793-7.188
	c1.195-2.381,2.769-4.143,4.72-5.279C264.147,359.334,266.213,358.762,268.394,358.762z M267.504,360.627
	c-1.014,0-2.033,0.301-3.055,0.904c-1.023,0.602-1.851,1.658-2.482,3.17s-0.947,3.451-0.947,5.824c0,3.824,0.76,7.125,2.281,9.898
	c1.521,2.775,3.525,4.16,6.011,4.16c1.855,0,3.386-0.766,4.591-2.295s1.808-4.16,1.808-7.891c0-4.668-1.004-8.34-3.013-11.018
	C271.339,361.545,269.609,360.627,267.504,360.627z"/>
<path fill="#FFFFFF" d="M292.581,364.328c3.08-3.709,6.015-5.566,8.808-5.566c1.435,0,2.668,0.359,3.701,1.076
	s1.855,1.9,2.467,3.543c0.42,1.148,0.631,2.908,0.631,5.279v11.219c0,1.664,0.133,2.793,0.402,3.387
	c0.211,0.479,0.549,0.852,1.019,1.119c0.469,0.266,1.334,0.4,2.597,0.4v1.033h-12.998v-1.033h0.545c1.224,0,2.08-0.186,2.568-0.559
	s0.828-0.924,1.019-1.65c0.076-0.287,0.115-1.186,0.115-2.697v-10.76c0-2.389-0.312-4.127-0.933-5.207
	c-0.621-1.078-1.668-1.621-3.142-1.621c-2.277,0-4.543,1.242-6.8,3.73v13.857c0,1.779,0.104,2.879,0.315,3.301
	c0.268,0.553,0.636,0.961,1.104,1.219c0.469,0.258,1.42,0.387,2.855,0.387v1.033h-12.997v-1.033h0.574
	c1.338,0,2.242-0.342,2.711-1.018c0.469-0.678,0.703-1.975,0.703-3.889v-9.754c0-3.156-0.072-5.08-0.215-5.768
	c-0.144-0.689-0.363-1.156-0.66-1.406s-0.693-0.373-1.19-0.373c-0.535,0-1.177,0.145-1.922,0.43l-0.431-1.031l7.919-3.215h1.234
	V364.328z"/>
<path fill="#FFFFFF" d="M336.679,358.762v5.91c2.199-3.938,4.457-5.91,6.771-5.91c1.052,0,1.922,0.318,2.611,0.961
	c0.689,0.645,1.033,1.385,1.033,2.225c0,0.746-0.249,1.377-0.746,1.893c-0.498,0.518-1.09,0.775-1.779,0.775
	c-0.67,0-1.42-0.33-2.252-0.99s-1.449-0.988-1.851-0.988c-0.344,0-0.717,0.191-1.119,0.572c-0.861,0.783-1.75,2.074-2.668,3.873
	v12.596c0,1.455,0.182,2.555,0.545,3.301c0.249,0.516,0.689,0.945,1.32,1.291c0.631,0.344,1.54,0.516,2.726,0.516v1.033h-13.456
	v-1.033c1.338,0,2.334-0.209,2.984-0.631c0.478-0.307,0.813-0.795,1.004-1.463c0.096-0.324,0.143-1.254,0.143-2.783v-10.186
	c0-3.061-0.062-4.881-0.187-5.467c-0.125-0.584-0.354-1.01-0.688-1.275c-0.334-0.268-0.75-0.402-1.248-0.402
	c-0.592,0-1.262,0.145-2.008,0.43l-0.287-1.031l7.948-3.215H336.679z"/>
<path fill="#FFFFFF" d="M352.976,369.436c-0.019,3.902,0.928,6.963,2.84,9.182c1.912,2.217,4.16,3.328,6.742,3.328
	c1.722,0,3.218-0.475,4.49-1.42c1.272-0.947,2.338-2.568,3.199-4.863l0.89,0.574c-0.402,2.619-1.568,5.006-3.5,7.158
	c-1.933,2.15-4.351,3.227-7.259,3.227c-3.156,0-5.857-1.23-8.105-3.686c-2.248-2.457-3.371-5.762-3.371-9.914
	c0-4.496,1.152-8.002,3.457-10.516c2.306-2.512,5.198-3.771,8.679-3.771c2.945,0,5.365,0.973,7.259,2.912
	c1.894,1.939,2.841,4.539,2.841,7.789H352.976z M352.976,367.771h12.165c-0.096-1.684-0.297-2.869-0.603-3.559
	c-0.478-1.068-1.191-1.912-2.138-2.523s-1.937-0.918-2.969-0.918c-1.588,0-3.008,0.615-4.261,1.85S353.187,365.57,352.976,367.771z"
	/>
<path fill="#FFFFFF" d="M373.29,359.537h12.366v1.063h-0.803c-0.746,0-1.315,0.18-1.707,0.545c-0.392,0.363-0.588,0.852-0.588,1.463
	c0,0.668,0.201,1.463,0.603,2.381l6.111,14.518l6.14-15.063c0.44-1.07,0.66-1.885,0.66-2.439c0-0.266-0.076-0.486-0.229-0.66
	c-0.211-0.285-0.478-0.484-0.803-0.588s-0.986-0.156-1.98-0.156v-1.063h8.579v1.063c-0.994,0.076-1.683,0.277-2.065,0.602
	c-0.67,0.574-1.272,1.529-1.808,2.869l-9.325,22.551h-1.176l-9.382-22.178c-0.42-1.033-0.822-1.775-1.205-2.223
	c-0.383-0.449-0.871-0.828-1.463-1.135c-0.326-0.172-0.966-0.336-1.922-0.486V359.537z"/>
<path fill="#FFFFFF" d="M416.872,358.762c3.978,0,7.173,1.514,9.583,4.533c2.047,2.582,3.07,5.547,3.07,8.895
	c0,2.354-0.563,4.734-1.693,7.145c-1.129,2.41-2.683,4.227-4.662,5.451c-1.98,1.225-4.185,1.836-6.613,1.836
	c-3.959,0-7.105-1.578-9.439-4.734c-1.97-2.658-2.956-5.643-2.956-8.951c0-2.41,0.599-4.805,1.793-7.188
	c1.195-2.381,2.769-4.143,4.72-5.279C412.625,359.334,414.691,358.762,416.872,358.762z M415.982,360.627
	c-1.014,0-2.033,0.301-3.055,0.904c-1.023,0.602-1.851,1.658-2.482,3.17s-0.947,3.451-0.947,5.824c0,3.824,0.76,7.125,2.281,9.898
	c1.521,2.775,3.525,4.16,6.011,4.16c1.855,0,3.386-0.766,4.591-2.295s1.808-4.16,1.808-7.891c0-4.668-1.004-8.34-3.013-11.018
	C419.817,361.545,418.087,360.627,415.982,360.627z"/>
<path fill="#FFFFFF" d="M442.436,345.02v34.859c0,1.645,0.119,2.734,0.359,3.271c0.239,0.537,0.606,0.943,1.104,1.219
	c0.498,0.275,1.424,0.416,2.783,0.416v1.033h-12.883v-1.033c1.205,0,2.027-0.123,2.468-0.373s0.785-0.66,1.033-1.232
	c0.248-0.574,0.373-1.674,0.373-3.301v-23.871c0-2.963-0.067-4.789-0.201-5.465c-0.134-0.678-0.349-1.143-0.646-1.393
	c-0.297-0.25-0.674-0.373-1.133-0.373c-0.498,0-1.129,0.152-1.894,0.459l-0.487-1.004l7.833-3.213H442.436z"/>
<path fill="#FFFFFF" d="M472.763,359.537v15.924c0,3.041,0.071,4.902,0.215,5.58s0.373,1.154,0.688,1.42
	c0.316,0.268,0.685,0.402,1.105,0.402c0.592,0,1.262-0.164,2.008-0.488l0.402,1.004l-7.862,3.242h-1.291v-5.566
	c-2.256,2.449-3.978,3.988-5.165,4.621c-1.186,0.631-2.438,0.945-3.758,0.945c-1.474,0-2.75-0.428-3.831-1.275
	c-1.08-0.85-1.832-1.945-2.252-3.285c-0.42-1.34-0.631-3.234-0.631-5.682v-11.734c0-1.242-0.133-2.104-0.402-2.582
	c-0.268-0.48-0.664-0.848-1.19-1.105c-0.527-0.258-1.478-0.379-2.855-0.357v-1.063h9.21v17.588c0,2.447,0.426,4.055,1.277,4.82
	s1.879,1.146,3.084,1.146c0.822,0,1.754-0.258,2.797-0.773c1.043-0.518,2.281-1.5,3.715-2.955v-14.891
	c0-1.492-0.272-2.5-0.818-3.027c-0.545-0.527-1.678-0.809-3.4-0.846v-1.063H472.763z"/>
<path fill="#FFFFFF" d="M486.735,350.9v8.637h6.14v2.008h-6.14v17.043c0,1.701,0.244,2.85,0.731,3.443s1.115,0.889,1.879,0.889
	c0.631,0,1.244-0.197,1.836-0.588c0.593-0.391,1.052-0.969,1.377-1.736h1.119c-0.67,1.875-1.617,3.285-2.841,4.232
	s-2.486,1.42-3.787,1.42c-0.879,0-1.74-0.242-2.582-0.73c-0.842-0.488-1.463-1.188-1.865-2.096
	c-0.401-0.906-0.603-2.309-0.603-4.203v-17.674h-4.16V360.6c1.052-0.422,2.127-1.135,3.228-2.139c1.1-1.004,2.08-2.195,2.94-3.572
	c0.44-0.725,1.052-2.057,1.836-3.988H486.735z"/>
<path fill="#FFFFFF" d="M504.494,358.762v21.117c0,1.645,0.121,2.74,0.361,3.285c0.238,0.545,0.592,0.953,1.063,1.221
	c0.467,0.266,1.322,0.4,2.564,0.4v1.033h-12.766v-1.033c1.281,0,2.142-0.123,2.582-0.373s0.789-0.66,1.047-1.232
	c0.258-0.574,0.387-1.674,0.387-3.301v-10.127c0-2.85-0.086-4.697-0.258-5.539c-0.133-0.609-0.344-1.035-0.631-1.275
	c-0.287-0.242-0.678-0.359-1.176-0.359c-0.535,0-1.187,0.145-1.951,0.43l-0.402-1.031l7.918-3.215H504.494z M502.113,345.02
	c0.803,0,1.488,0.283,2.055,0.846c0.561,0.563,0.842,1.248,0.842,2.053c0,0.803-0.281,1.49-0.842,2.064
	c-0.566,0.574-1.252,0.861-2.055,0.861c-0.805,0-1.493-0.287-2.066-0.861c-0.573-0.574-0.86-1.262-0.86-2.064
	c0-0.805,0.283-1.49,0.848-2.053C500.598,345.303,501.292,345.02,502.113,345.02z"/>
<path fill="#FFFFFF" d="M524.607,358.762c3.979,0,7.172,1.514,9.582,4.533c2.049,2.582,3.07,5.547,3.07,8.895
	c0,2.354-0.563,4.734-1.693,7.145c-1.127,2.41-2.68,4.227-4.658,5.451c-1.98,1.225-4.188,1.836-6.617,1.836
	c-3.959,0-7.104-1.578-9.439-4.734c-1.969-2.658-2.955-5.643-2.955-8.951c0-2.41,0.6-4.805,1.797-7.188
	c1.193-2.381,2.766-4.143,4.717-5.279C520.361,359.334,522.425,358.762,524.607,358.762z M523.716,360.627
	c-1.012,0-2.031,0.301-3.053,0.904c-1.023,0.602-1.854,1.658-2.484,3.17s-0.947,3.451-0.947,5.824c0,3.824,0.764,7.125,2.285,9.898
	c1.52,2.775,3.523,4.16,6.008,4.16c1.855,0,3.385-0.766,4.59-2.295s1.809-4.16,1.809-7.891c0-4.668-1.004-8.34-3.014-11.018
	C527.552,361.545,525.824,360.627,523.716,360.627z"/>
<path fill="#FFFFFF" d="M548.792,364.328c3.082-3.709,6.018-5.566,8.809-5.566c1.436,0,2.668,0.359,3.701,1.076
	s1.857,1.9,2.469,3.543c0.422,1.148,0.631,2.908,0.631,5.279v11.219c0,1.664,0.135,2.793,0.4,3.387
	c0.213,0.479,0.551,0.852,1.021,1.119c0.469,0.266,1.332,0.4,2.594,0.4v1.033h-12.996v-1.033h0.545c1.225,0,2.082-0.186,2.57-0.559
	s0.826-0.924,1.016-1.65c0.078-0.287,0.115-1.186,0.115-2.697v-10.76c0-2.389-0.311-4.127-0.93-5.207
	c-0.623-1.078-1.67-1.621-3.145-1.621c-2.275,0-4.543,1.242-6.801,3.73v13.857c0,1.779,0.107,2.879,0.316,3.301
	c0.27,0.553,0.637,0.961,1.107,1.219c0.467,0.258,1.418,0.387,2.852,0.387v1.033h-12.996v-1.033h0.572
	c1.34,0,2.244-0.342,2.715-1.018c0.469-0.678,0.701-1.975,0.701-3.889v-9.754c0-3.156-0.07-5.08-0.213-5.768
	c-0.145-0.689-0.365-1.156-0.66-1.406c-0.299-0.25-0.695-0.373-1.193-0.373c-0.533,0-1.176,0.145-1.922,0.43l-0.432-1.031
	l7.92-3.215h1.232V364.328z"/>
<path fill="#FFFFFF" d="M579.58,358.762v21.117c0,1.645,0.119,2.74,0.361,3.285c0.238,0.545,0.59,0.953,1.061,1.221
	c0.469,0.266,1.324,0.4,2.566,0.4v1.033H570.8v-1.033c1.281,0,2.143-0.123,2.582-0.373c0.441-0.25,0.791-0.66,1.049-1.232
	c0.26-0.574,0.385-1.674,0.385-3.301v-10.127c0-2.85-0.086-4.697-0.258-5.539c-0.133-0.609-0.344-1.035-0.631-1.275
	c-0.287-0.242-0.678-0.359-1.176-0.359c-0.535,0-1.186,0.145-1.951,0.43l-0.402-1.031l7.918-3.215H579.58z M577.197,345.02
	c0.805,0,1.49,0.283,2.055,0.846c0.563,0.563,0.844,1.248,0.844,2.053c0,0.803-0.281,1.49-0.844,2.064
	c-0.564,0.574-1.25,0.861-2.055,0.861c-0.803,0-1.49-0.287-2.064-0.861s-0.861-1.262-0.861-2.064c0-0.805,0.285-1.49,0.85-2.053
	C575.683,345.303,576.376,345.02,577.197,345.02z"/>
<path fill="#FFFFFF" d="M609.677,377.756l-0.316,8.063h-23.184v-1.033l17.445-23.24h-8.607c-1.854,0-3.07,0.119-3.645,0.359
	c-0.572,0.24-1.041,0.693-1.404,1.363c-0.518,0.955-0.813,2.143-0.891,3.557h-1.146l0.172-7.287h22.035v1.063l-17.617,23.297h9.582
	c2.01,0,3.375-0.17,4.092-0.502c0.717-0.334,1.295-0.924,1.732-1.766c0.309-0.611,0.566-1.902,0.775-3.873H609.677z"/>
<path fill="#FFFFFF" d="M621.986,358.762v21.117c0,1.645,0.119,2.74,0.361,3.285c0.238,0.545,0.59,0.953,1.061,1.221
	c0.469,0.266,1.322,0.4,2.564,0.4v1.033h-12.768v-1.033c1.283,0,2.145-0.123,2.584-0.373c0.441-0.25,0.791-0.66,1.049-1.232
	c0.258-0.574,0.385-1.674,0.385-3.301v-10.127c0-2.85-0.086-4.697-0.258-5.539c-0.133-0.609-0.344-1.035-0.631-1.275
	c-0.287-0.242-0.678-0.359-1.178-0.359c-0.533,0-1.184,0.145-1.951,0.43l-0.4-1.031l7.918-3.215H621.986z M619.603,345.02
	c0.805,0,1.49,0.283,2.055,0.846c0.563,0.563,0.844,1.248,0.844,2.053c0,0.803-0.281,1.49-0.844,2.064
	c-0.564,0.574-1.25,0.861-2.055,0.861c-0.803,0-1.492-0.287-2.064-0.861c-0.574-0.574-0.861-1.262-0.861-2.064
	c0-0.805,0.283-1.49,0.85-2.053C618.089,345.303,618.783,345.02,619.603,345.02z"/>
<path fill="#FFFFFF" d="M636.904,364.328c3.082-3.709,6.018-5.566,8.809-5.566c1.436,0,2.668,0.359,3.701,1.076
	s1.857,1.9,2.469,3.543c0.422,1.148,0.631,2.908,0.631,5.279v11.219c0,1.664,0.135,2.793,0.4,3.387
	c0.213,0.479,0.551,0.852,1.021,1.119c0.469,0.266,1.332,0.4,2.594,0.4v1.033h-12.996v-1.033h0.545c1.225,0,2.082-0.186,2.57-0.559
	s0.826-0.924,1.016-1.65c0.078-0.287,0.115-1.186,0.115-2.697v-10.76c0-2.389-0.311-4.127-0.93-5.207
	c-0.623-1.078-1.67-1.621-3.145-1.621c-2.275,0-4.543,1.242-6.801,3.73v13.857c0,1.779,0.107,2.879,0.316,3.301
	c0.27,0.553,0.637,0.961,1.107,1.219c0.467,0.258,1.418,0.387,2.852,0.387v1.033h-12.996v-1.033h0.572
	c1.34,0,2.244-0.342,2.715-1.018c0.469-0.678,0.701-1.975,0.701-3.889v-9.754c0-3.156-0.07-5.08-0.213-5.768
	c-0.145-0.689-0.365-1.156-0.66-1.406c-0.299-0.25-0.695-0.373-1.193-0.373c-0.533,0-1.176,0.145-1.922,0.43l-0.432-1.031
	l7.92-3.215h1.232V364.328z"/>
<path fill="#FFFFFF" d="M665.654,376.236c-1.607-0.783-2.842-1.881-3.701-3.285c-0.861-1.406-1.291-2.961-1.291-4.664
	c0-2.602,0.98-4.84,2.943-6.713c1.959-1.873,4.471-2.813,7.529-2.813c2.506,0,4.676,0.611,6.512,1.838h5.566
	c0.824,0,1.303,0.025,1.436,0.07c0.135,0.047,0.229,0.129,0.285,0.244c0.115,0.172,0.174,0.479,0.174,0.918
	c0,0.496-0.047,0.842-0.145,1.033c-0.057,0.096-0.154,0.172-0.299,0.23c-0.143,0.057-0.627,0.086-1.451,0.086h-3.414
	c1.072,1.377,1.607,3.135,1.607,5.279c0,2.447-0.936,4.541-2.813,6.283c-1.873,1.74-4.391,2.609-7.547,2.609
	c-1.299,0-2.627-0.191-3.986-0.572c-0.842,0.725-1.41,1.361-1.705,1.908c-0.299,0.545-0.447,1.01-0.447,1.391
	c0,0.324,0.16,0.641,0.477,0.947c0.314,0.307,0.93,0.525,1.848,0.66c0.535,0.076,1.875,0.143,4.016,0.199
	c3.943,0.096,6.496,0.23,7.662,0.402c1.777,0.25,3.201,0.91,4.262,1.98c1.063,1.07,1.59,2.389,1.59,3.959
	c0,2.16-1.012,4.189-3.041,6.082c-2.984,2.793-6.875,4.189-11.678,4.189c-3.689,0-6.809-0.832-9.354-2.496
	c-1.434-0.955-2.15-1.951-2.15-2.984c0-0.459,0.105-0.918,0.314-1.377c0.328-0.709,0.996-1.693,2.01-2.955
	c0.135-0.172,1.109-1.205,2.926-3.098c-0.992-0.596-1.695-1.123-2.105-1.594c-0.414-0.471-0.621-0.998-0.621-1.592
	c0-0.668,0.275-1.455,0.82-2.354C662.429,379.154,663.685,377.879,665.654,376.236z M665.367,385.818
	c-0.898,0.975-1.578,1.885-2.037,2.727c-0.459,0.84-0.689,1.615-0.689,2.322c0,0.92,0.557,1.723,1.664,2.41
	c1.914,1.186,4.678,1.779,8.293,1.779c3.443,0,5.984-0.605,7.619-1.822c1.637-1.215,2.451-2.51,2.451-3.887
	c0-0.996-0.488-1.701-1.463-2.123c-0.994-0.422-2.965-0.668-5.91-0.746C670.99,386.363,667.681,386.143,665.367,385.818z
	 M670.646,360.139c-1.414,0-2.6,0.566-3.559,1.693c-0.955,1.129-1.434,2.861-1.434,5.193c0,3.021,0.65,5.365,1.951,7.029
	c0.994,1.262,2.258,1.895,3.787,1.895c1.455,0,2.65-0.545,3.586-1.637c0.938-1.09,1.406-2.803,1.406-5.135
	c0-3.041-0.66-5.424-1.98-7.145C673.429,360.771,672.177,360.139,670.646,360.139z"/>
<path fill="#FFFFFF" d="M710.326,350.9v8.637h6.141v2.008h-6.141v17.043c0,1.701,0.246,2.85,0.734,3.443s1.113,0.889,1.877,0.889
	c0.631,0,1.244-0.197,1.836-0.588c0.594-0.391,1.053-0.969,1.377-1.736h1.119c-0.668,1.875-1.615,3.285-2.84,4.232
	c-1.223,0.947-2.484,1.42-3.787,1.42c-0.879,0-1.74-0.242-2.582-0.73s-1.465-1.188-1.865-2.096
	c-0.402-0.906-0.604-2.309-0.604-4.203v-17.674h-4.16V360.6c1.053-0.422,2.129-1.135,3.23-2.139c1.1-1.004,2.078-2.195,2.939-3.572
	c0.441-0.725,1.053-2.057,1.836-3.988H710.326z"/>
<path fill="#FFFFFF" d="M731.873,358.762c3.98,0,7.174,1.514,9.584,4.533c2.049,2.582,3.07,5.547,3.07,8.895
	c0,2.354-0.563,4.734-1.693,7.145c-1.127,2.41-2.68,4.227-4.66,5.451c-1.979,1.225-4.186,1.836-6.615,1.836
	c-3.961,0-7.105-1.578-9.439-4.734c-1.969-2.658-2.955-5.643-2.955-8.951c0-2.41,0.6-4.805,1.795-7.188
	c1.193-2.381,2.766-4.143,4.717-5.279C727.626,359.334,729.693,358.762,731.873,358.762z M730.984,360.627
	c-1.014,0-2.031,0.301-3.053,0.904c-1.025,0.602-1.854,1.658-2.484,3.17s-0.947,3.451-0.947,5.824c0,3.824,0.764,7.125,2.283,9.898
	c1.521,2.775,3.523,4.16,6.008,4.16c1.857,0,3.387-0.766,4.592-2.295s1.807-4.16,1.807-7.891c0-4.668-1.004-8.34-3.012-11.018
	C734.82,361.545,733.089,360.627,730.984,360.627z"/>
<path fill="#FFFFFF" d="M756.203,364.357c1.914-1.914,3.043-3.014,3.387-3.299c0.861-0.727,1.789-1.291,2.783-1.693
	s1.979-0.604,2.955-0.604c1.646,0,3.061,0.48,4.246,1.436c1.188,0.955,1.98,2.344,2.381,4.16c1.971-2.295,3.635-3.803,4.992-4.52
	c1.361-0.717,2.756-1.076,4.189-1.076c1.396,0,2.637,0.359,3.719,1.076c1.078,0.717,1.934,1.889,2.564,3.516
	c0.422,1.109,0.631,2.848,0.631,5.221v11.305c0,1.645,0.127,2.775,0.373,3.387c0.193,0.422,0.545,0.777,1.063,1.074
	c0.516,0.299,1.359,0.445,2.525,0.445v1.033h-12.969v-1.033h0.545c1.131,0,2.008-0.221,2.639-0.66
	c0.441-0.307,0.758-0.795,0.947-1.463c0.078-0.324,0.115-1.254,0.115-2.783v-11.305c0-2.143-0.258-3.652-0.775-4.533
	c-0.746-1.225-1.939-1.836-3.586-1.836c-1.014,0-2.031,0.256-3.053,0.76c-1.025,0.506-2.264,1.449-3.719,2.826l-0.057,0.316
	l0.057,1.234v12.537c0,1.799,0.104,2.918,0.305,3.357s0.576,0.807,1.131,1.104c0.557,0.299,1.502,0.445,2.84,0.445v1.033h-13.285
	v-1.033c1.455,0,2.457-0.172,3.002-0.516c0.545-0.346,0.922-0.861,1.131-1.549c0.098-0.324,0.143-1.271,0.143-2.842v-11.305
	c0-2.143-0.314-3.68-0.947-4.619c-0.84-1.225-2.016-1.836-3.527-1.836c-1.033,0-2.055,0.279-3.07,0.832
	c-1.588,0.842-2.813,1.787-3.674,2.84v14.088c0,1.723,0.121,2.842,0.361,3.357c0.238,0.516,0.592,0.904,1.063,1.162
	c0.467,0.258,1.418,0.387,2.852,0.387v1.033h-12.996v-1.033c1.205,0,2.049-0.129,2.523-0.387c0.48-0.258,0.844-0.672,1.092-1.234
	s0.373-1.658,0.373-3.285v-10.041c0-2.891-0.088-4.754-0.26-5.596c-0.131-0.631-0.344-1.064-0.631-1.305
	c-0.287-0.242-0.678-0.359-1.176-0.359c-0.533,0-1.176,0.145-1.922,0.43l-0.432-1.031l7.92-3.215h1.232V364.357z"/>
<path fill="#FFFFFF" d="M806.958,358.762c3.98,0,7.174,1.514,9.582,4.533c2.049,2.582,3.07,5.547,3.07,8.895
	c0,2.354-0.563,4.734-1.691,7.145s-2.68,4.227-4.66,5.451s-4.186,1.836-6.617,1.836c-3.959,0-7.104-1.578-9.439-4.734
	c-1.967-2.658-2.955-5.643-2.955-8.951c0-2.41,0.6-4.805,1.797-7.188c1.193-2.381,2.766-4.143,4.717-5.279
	C802.712,359.334,804.779,358.762,806.958,358.762z M806.07,360.627c-1.014,0-2.031,0.301-3.053,0.904
	c-1.025,0.602-1.854,1.658-2.486,3.17c-0.631,1.512-0.945,3.451-0.945,5.824c0,3.824,0.762,7.125,2.283,9.898
	c1.521,2.775,3.523,4.16,6.008,4.16c1.857,0,3.387-0.766,4.59-2.295c1.205-1.529,1.809-4.16,1.809-7.891
	c0-4.668-1.004-8.34-3.012-11.018C809.906,361.545,808.175,360.627,806.07,360.627z"/>
<path fill="#FFFFFF" d="M831.173,358.762v5.91c2.201-3.938,4.459-5.91,6.771-5.91c1.053,0,1.922,0.318,2.611,0.961
	c0.689,0.645,1.033,1.385,1.033,2.225c0,0.746-0.246,1.377-0.746,1.893c-0.496,0.518-1.09,0.775-1.779,0.775
	c-0.668,0-1.418-0.33-2.25-0.99s-1.451-0.988-1.854-0.988c-0.344,0-0.717,0.191-1.117,0.572c-0.861,0.783-1.752,2.074-2.67,3.873
	v12.596c0,1.455,0.184,2.555,0.545,3.301c0.25,0.516,0.689,0.945,1.32,1.291c0.631,0.344,1.541,0.516,2.727,0.516v1.033h-13.457
	v-1.033c1.34,0,2.336-0.209,2.984-0.631c0.479-0.307,0.814-0.795,1.004-1.463c0.098-0.324,0.145-1.254,0.145-2.783v-10.186
	c0-3.061-0.061-4.881-0.184-5.467c-0.127-0.584-0.357-1.01-0.689-1.275c-0.336-0.268-0.752-0.402-1.252-0.402
	c-0.59,0-1.262,0.145-2.008,0.43l-0.287-1.031l7.947-3.215H831.173z"/>
<path fill="#FFFFFF" d="M850.742,358.762v5.91c2.201-3.938,4.459-5.91,6.771-5.91c1.053,0,1.922,0.318,2.611,0.961
	c0.688,0.645,1.031,1.385,1.031,2.225c0,0.746-0.246,1.377-0.746,1.893c-0.496,0.518-1.09,0.775-1.777,0.775
	c-0.67,0-1.418-0.33-2.25-0.99s-1.451-0.988-1.854-0.988c-0.344,0-0.717,0.191-1.119,0.572c-0.861,0.783-1.75,2.074-2.668,3.873
	v12.596c0,1.455,0.184,2.555,0.545,3.301c0.25,0.516,0.689,0.945,1.32,1.291c0.631,0.344,1.541,0.516,2.725,0.516v1.033h-13.455
	v-1.033c1.34,0,2.336-0.209,2.984-0.631c0.479-0.307,0.814-0.795,1.004-1.463c0.098-0.324,0.143-1.254,0.143-2.783v-10.186
	c0-3.061-0.061-4.881-0.184-5.467c-0.127-0.584-0.355-1.01-0.688-1.275c-0.336-0.268-0.752-0.402-1.252-0.402
	c-0.592,0-1.262,0.145-2.008,0.43l-0.287-1.031l7.947-3.215H850.742z"/>
<path fill="#FFFFFF" d="M875.474,358.762c3.979,0,7.172,1.514,9.582,4.533c2.049,2.582,3.07,5.547,3.07,8.895
	c0,2.354-0.563,4.734-1.693,7.145c-1.127,2.41-2.68,4.227-4.658,5.451c-1.98,1.225-4.188,1.836-6.617,1.836
	c-3.959,0-7.104-1.578-9.439-4.734c-1.969-2.658-2.955-5.643-2.955-8.951c0-2.41,0.6-4.805,1.797-7.188
	c1.193-2.381,2.766-4.143,4.717-5.279C871.228,359.334,873.292,358.762,875.474,358.762z M874.583,360.627
	c-1.012,0-2.031,0.301-3.053,0.904c-1.023,0.602-1.854,1.658-2.484,3.17s-0.947,3.451-0.947,5.824c0,3.824,0.764,7.125,2.285,9.898
	c1.52,2.775,3.523,4.16,6.008,4.16c1.855,0,3.385-0.766,4.59-2.295s1.809-4.16,1.809-7.891c0-4.668-1.004-8.34-3.014-11.018
	C878.419,361.545,876.691,360.627,874.583,360.627z"/>
<path fill="#FFFFFF" d="M890.537,359.537h11.018v1.063c-1.014,0.076-1.676,0.258-1.992,0.545c-0.314,0.287-0.475,0.697-0.475,1.232
	c0,0.594,0.162,1.313,0.486,2.152l5.625,15.121l5.652-12.309l-1.492-3.873c-0.459-1.148-1.063-1.943-1.809-2.383
	c-0.418-0.266-1.205-0.43-2.352-0.486v-1.063h12.508v1.063c-1.377,0.057-2.352,0.307-2.926,0.744
	c-0.381,0.309-0.574,0.795-0.574,1.465c0,0.381,0.078,0.773,0.23,1.176l5.967,15.092l5.537-14.547
	c0.385-1.033,0.574-1.855,0.574-2.467c0-0.365-0.184-0.689-0.557-0.977s-1.107-0.449-2.197-0.486v-1.063h8.291v1.063
	c-1.664,0.248-2.885,1.377-3.672,3.385l-8.779,22.637h-1.176l-6.57-16.783l-7.662,16.783h-1.061l-8.436-22.092
	c-0.553-1.396-1.1-2.338-1.635-2.826s-1.377-0.855-2.525-1.104V359.537z"/>
<text transform="matrix(1 0 0 1 270.1128 217.1924)" display="none"><tspan x="0" y="0" display="inline" font-family="'TimesNewRomanPS-BoldItalicMT'" font-size="64">hydro</tspan><tspan x="152.906" y="0" display="inline" font-family="'Arial-Black'" font-size="60">Analytics</tspan></text>
<text transform="matrix(1 0 0 1 314.1787 228.1865)" display="none"><tspan x="0" y="0" display="inline" fill="#FFFFFF" font-family="'TimesNewRomanPSMT'" font-size="120">{</tspan><tspan x="57.598" y="-10" display="inline" fill="#FFFFFF" font-family="'TimesNewRomanPS-BoldItalicMT'" font-size="60">i</tspan><tspan x="74.268" y="-10" display="inline" fill="#FFFFFF" font-family="'Arial-Black'" font-size="56">STUDIO</tspan><tspan x="313.799" y="0" display="inline" fill="#FFFFFF" font-family="'TimesNewRomanPSMT'" font-size="120">}</tspan><tspan x="37.388" y="48" display="inline" fill="#FFFFFF" font-family="'TimesNewRomanPSMT'" font-size="20">innovation revolutionizing tomorrow</tspan></text>
<text transform="matrix(1 0 0 1 270.1128 217.1924)" display="none"><tspan x="0" y="0" display="inline" fill="#FFFFFF" font-family="'TimesNewRomanPS-BoldItalicMT'" font-size="64">hydro</tspan><tspan x="152.906" y="0" display="inline" fill="#FFFFFF" font-family="'Arial-Black'" font-size="60">Analytics</tspan></text>
</svg>
