<?xml version="1.0" encoding="utf-8"?>
<!-- Generator: Adobe Illustrator 15.1.0, SVG Export Plug-In  -->
<!DOCTYPE svg PUBLIC "-//W3C//DTD SVG 1.1//EN" "http://www.w3.org/Graphics/SVG/1.1/DTD/svg11.dtd" [
	<!ENTITY ns_flows "http://ns.adobe.com/Flows/1.0/">
]>
<svg version="1.1"
	 xmlns="http://www.w3.org/2000/svg" xmlns:xlink="http://www.w3.org/1999/xlink" xmlns:a="http://ns.adobe.com/AdobeSVGViewerExtensions/3.0/"
	 x="0px" y="0px" width="835px" height="1000px" viewBox="0 0 835 1000" enable-background="new 0 0 835 1000" xml:space="preserve"
	>
<defs>
</defs>
<path display="none" d="M417.301,0h417.301c0,0,0,277.815,0,374.294c0,96.478-53.471,297.575-149.949,421.95
	c-96.479,124.377-267.352,203.421-267.352,203.421s-170.874-79.044-267.352-203.421C53.471,671.869,0,470.772,0,374.294
	C0,277.815,0,0,0,0H417.301z"/>
<path display="none" fill="#FFFFFF" d="M6.975,6.975v367.319c0,92.474,52.876,294.421,148.485,417.676
	c87.483,112.778,238.919,188.868,261.841,199.965c22.929-11.108,174.412-87.252,261.84-199.965
	c95.609-123.255,148.487-325.202,148.487-417.676V6.975H6.975z"/>
<path display="none" fill="#145FAD" d="M34.872,34.872v339.422c0,88.569,50.792,282.183,142.631,400.577
	c74.071,95.487,197.578,164.172,239.798,185.871c42.219-21.699,165.727-90.384,239.798-185.871
	C748.938,656.477,799.73,462.863,799.73,374.294V34.872H34.872z"/>
<path display="none" fill="#EFDE8F" d="M34.872,217.659v156.635c0,69.229,31.034,202.637,88.445,314.138h587.968
	c57.412-111.501,88.445-244.908,88.445-314.138V217.659H34.872z"/>
<path display="none" fill="#DD3526" d="M34.872,354.242v20.052c0,41.981,11.431,107.571,33.215,177.557h698.428
	c21.784-69.986,33.215-135.576,33.215-177.557v-20.052H34.872z"/>
<path display="none" fill="#FFFFFF" d="M194.679,140.082c61.09,0,107.882,10.867,140.391,32.604
	c32.499,21.731,48.755,55.506,48.755,101.325c0,28.592-6.563,51.792-19.678,69.606c-13.125,17.828-32.014,31.822-56.685,41.998
	c8.224,10.189,16.833,21.834,25.846,34.952c9.005,13.125,17.917,26.827,26.727,41.12c8.811,14.299,17.329,29.177,25.553,44.641
	c8.223,15.475,15.86,30.647,22.907,45.523H306.057c-7.47-13.31-15.042-26.816-22.707-40.53
	c-7.665-13.701-15.521-27.018-23.578-39.942c-8.06-12.924-16.026-25.159-23.883-36.712c-7.865-11.548-15.731-22.026-23.587-31.426
	h-45.229v148.61H75.438V150.656c19.969-3.913,40.622-6.655,61.971-8.224C158.748,140.873,177.839,140.082,194.679,140.082z
	 M199.966,218.209c-6.663,0-12.629,0.201-17.915,0.585c-5.287,0.395-10.279,0.79-14.979,1.174v110.433h25.844
	c34.455,0,59.128-4.306,74.015-12.921c14.876-8.611,22.321-23.298,22.321-44.058c0-19.968-7.544-34.162-22.616-42.587
	C251.557,222.421,229.339,218.209,199.966,218.209z"/>
<path display="none" fill="#FFFFFF" d="M589.41,140.082c60.695,0,107.293,10.676,139.8,32.015
	c32.502,21.347,48.758,56.3,48.758,104.85c0,48.956-16.448,84.292-49.343,106.026c-32.896,21.735-79.886,32.603-140.977,32.603
	h-28.783v136.275h-91.637V150.656c19.974-3.913,41.119-6.655,63.443-8.224C552.99,140.873,572.568,140.082,589.41,140.082z
	 M595.283,218.209c-6.662,0-13.218,0.201-19.675,0.585c-6.462,0.395-12.044,0.79-16.743,1.174V337.45h28.783
	c31.721,0,55.601-4.305,71.663-12.924c16.052-8.609,24.083-24.671,24.083-48.166c0-11.352-2.057-20.751-6.17-28.195
	c-4.108-7.434-9.982-13.411-17.621-17.916c-7.632-4.499-16.941-7.635-27.9-9.399C620.735,219.091,608.596,218.209,595.283,218.209z"
	/>
<path fill="#145FAD" d="M34.872,34.872v339.422c0,88.569,50.792,282.183,142.631,400.577
	c74.071,95.487,197.578,164.172,239.798,185.871c42.219-21.699,165.727-90.384,239.798-185.871
	C748.938,656.477,799.73,462.863,799.73,374.294V34.872H34.872z"/>
<path fill="#EFDE8F" d="M34.872,217.659v156.635c0,69.229,31.034,202.637,88.445,314.138h587.968
	c57.412-111.501,88.445-244.908,88.445-314.138V217.659H34.872z"/>
<path fill="#DD3526" d="M34.872,354.242v20.052c0,41.981,11.431,107.571,33.215,177.557h698.428
	c21.784-69.986,33.215-135.576,33.215-177.557v-20.052H34.872z"/>
</svg>
